PathFileType	4	(X/Y/Z)	/Users/itak/Documents/Research/Walk-IL/dataset/trc/00124_00007.trc
DataRate	CameraRate	NumFrames	NumMarkers	Units	OrigDataRate	OrigDataStartFrame	OrigNumFrames
100.000000	100.000000	4	53	mm	100.000000	555	740
Frame#	Time	RPSI			LPSI			L3			STRN			T10			C7			CLAV			RBAK			LBAK			LSHO			LUPA			LAEL			LAOL			LWTS			LWPS			LFRA			LIFD			LHPS			LHTS			RSHO			RUPA			RAEL			RAOL			RWTS			RWPS			RFRA			RIFD			RHTS			RHPS			RBHD			LFHD			RFHD			LBHD			LHIP			RHIP			RASI			LASI			LKNE			LTHI			LANK			LTIP			LTOE			LMT1			LMT5			LHEE			RKNE			RTHI			RANK			RTIP			RTOE			RMT1			RMT5			RHEE			
		X1	Y1	Z1	X2	Y2	Z2	X3	Y3	Z3	X4	Y4	Z4	X5	Y5	Z5	X6	Y6	Z6	X7	Y7	Z7	X8	Y8	Z8	X9	Y9	Z9	X10	Y10	Z10	X11	Y11	Z11	X12	Y12	Z12	X13	Y13	Z13	X14	Y14	Z14	X15	Y15	Z15	X16	Y16	Z16	X17	Y17	Z17	X18	Y18	Z18	X19	Y19	Z19	X20	Y20	Z20	X21	Y21	Z21	X22	Y22	Z22	X23	Y23	Z23	X24	Y24	Z24	X25	Y25	Z25	X26	Y26	Z26	X27	Y27	Z27	X28	Y28	Z28	X29	Y29	Z29	X30	Y30	Z30	X31	Y31	Z31	X32	Y32	Z32	X33	Y33	Z33	X34	Y34	Z34	X35	Y35	Z35	X36	Y36	Z36	X37	Y37	Z37	X38	Y38	Z38	X39	Y39	Z39	X40	Y40	Z40	X41	Y41	Z41	X42	Y42	Z42	X43	Y43	Z43	X44	Y44	Z44	X45	Y45	Z45	X46	Y46	Z46	X47	Y47	Z47	X48	Y48	Z48	X49	Y49	Z49	X50	Y50	Z50	X51	Y51	Z51	X52	Y52	Z52	X53	Y53	Z53	

556	5.55	-638.3351440429688	1102.870727539062	537.88134765625	-520.0447998046875	1103.496459960938	465.7152404785156	-575.3392333984375	1138.571533203125	495.5440673828125	-450.9214172363281	1341.995361328125	669.589599609375	-588.1576538085938	1289.983520507812	455.6148376464844	-546.4800415039062	1580.853149414062	471.0066223144531	-464.9380798339844	1476.962646484375	635.0537109375	-652.9833374023438	1398.893432617188	473.591552734375	-464.3478698730469	1557.302368164062	412.7577819824219	-362.8839721679688	1543.717041015625	453.6872863769531	-310.0162963867188	1410.275268554688	410.9206848144531	-267.5911254882812	1195.108032226562	441.6674194335938	-348.1203308105469	1170.493530273438	410.2959594726562	-238.4994354248047	978.6282348632812	613.3729248046875	-247.4606170654297	928.2994384765625	539.6732788085938	-247.2161712646484	1086.673828125	481.3613891601562	-233.4235687255859	799.7442626953125	688.8810424804688	-227.0365600585938	865.74267578125	585.8543090820312	-212.8894805908203	897.3178100585938	646.89990234375	-675.7900390625	1568.432983398438	611.7453002929688	-740.5671997070312	1497.287109375	629.5411376953125	-777.6338500976562	1205.22998046875	633.170654296875	-695.0447387695312	1198.592163085938	583.726318359375	-715.0538940429688	960.0862426757812	759.06298828125	-777.4417114257812	946.0064086914062	705.4423217773438	-784.7850341796875	1132.998168945312	662.5293579101562	-697.6140747070312	764.525634765625	768.557861328125	-712.5167846679688	851.8095092773438	786.7429809570312	-770.2017822265625	845.76904296875	740.31298828125	-566.9644775390625	1774.41748046875	570.7056274414062	-351.793212890625	1791.223388671875	608.4578247070312	-446.0295715332031	1813.418701171875	694.8703002929688	-474.2078857421875	1756.519897460938	475.6803283691406	-377.0210876464844	1012.96484375	477.8377380371094	-651.5470581054688	1020.427551269531	724.1331176757812	-560.9381713867188	1091.132446289062	750.614990234375	-348.7040100097656	1078.566040039062	591.1569213867188	-467.3507080078125	513.5718383789062	527.7599487304688	-428.0018310546875	656.9758911132812	493.1565856933594	-616.9572143554688	39.61199951171875	417.1200866699219	-535.2583618164062	274.3424987792969	424.1531372070312	-571.9122314453125	34.66522979736328	650.4487915039062	-639.16796875	37.77547073364258	589.5435180664062	-545.5806274414062	42.16754531860352	521.4292602539062	-701.321533203125	41.82982635498047	378.2360534667969	-531.6220703125	564.3495483398438	861.639892578125	-602.9902954101562	827.1356201171875	797.9428100585938	-563.5226440429688	37.15421295166016	901.4051513671875	-549.8976440429688	430.1328430175781	884.9798583984375	-386.7992858886719	105.9429016113281	1032.824462890625	-385.4280090332031	82.69235229492188	965.296142578125	-497.2268371582031	63.71325302124023	1012.706420898438	-563.8001708984375	29.91914939880371	825.687744140625	
557	5.56	-635.7301025390625	1101.48779296875	545.9697265625	-517.4678344726562	1102.238159179688	473.1203002929688	-572.8095092773438	1137.223999023438	503.4463806152344	-446.560791015625	1340.42822265625	676.5596923828125	-585.8489379882812	1288.644897460938	464.0089416503906	-544.0735473632812	1579.538940429688	479.2033996582031	-460.9473571777344	1475.406860351562	642.313720703125	-650.6318969726562	1397.50146484375	482.7304077148438	-462.5199890136719	1555.926879882812	420.1226806640625	-360.7164916992188	1542.295043945312	459.9785461425781	-308.4036254882812	1408.773803710938	416.6766052246094	-265.9822387695312	1193.505249023438	447.0868835449219	-346.904296875	1169.000854492188	416.4602355957031	-235.5125732421875	977.1148071289062	618.58447265625	-245.2861480712891	926.709716796875	545.0244140625	-245.3214569091797	1085.047241210938	486.5821838378906	-229.87548828125	798.302001953125	694.212890625	-224.4521026611328	864.1959228515625	591.0565795898438	-209.6392517089844	895.801513671875	651.9113159179688	-671.93212890625	1567.0126953125	621.3084716796875	-736.710693359375	1495.875732421875	639.5927124023438	-773.8491821289062	1203.839965820312	643.6305541992188	-692.1437377929688	1197.13623046875	593.0841674804688	-710.0889282226562	958.6806640625	768.975341796875	-772.98291015625	944.6748657226562	716.1510620117188	-780.7762451171875	1131.615600585938	673.083740234375	-692.6276245117188	763.3480834960938	778.8519287109375	-707.3140869140625	850.4071655273438	797.1643676757812	-765.4664306640625	844.5073852539062	751.1026000976562	-563.69677734375	1773.01708984375	579.0203857421875	-348.1250305175781	1789.786865234375	614.8492431640625	-441.6671142578125	1812.004272460938	702.093505859375	-471.71337890625	1755.05126953125	483.1469116210938	-374.2203979492188	1011.755615234375	483.5519714355469	-646.6757202148438	1018.993225097656	733.0952758789062	-555.4317016601562	1089.454956054688	758.5193481445312	-344.8858337402344	1077.11376953125	596.7399291992188	-464.7615051269531	512.2832641601562	532.7433471679688	-425.3409729003906	655.8411254882812	498.3573303222656	-616.8897705078125	39.88240432739258	417.1569519042969	-533.9324951171875	274.04052734375	426.9644775390625	-571.810302734375	34.60077285766602	650.4229736328125	-639.1732788085938	37.74119186401367	589.5634155273438	-545.5662841796875	42.16991424560547	521.4279174804688	-701.249267578125	42.59115219116211	378.1494140625	-527.1520385742188	562.841796875	868.725830078125	-598.61181640625	824.9592895507812	805.4612426757812	-541.3106689453125	36.72303009033203	922.9168701171875	-541.5194091796875	429.4211120605469	895.5989990234375	-363.2556457519531	113.8222961425781	1047.825927734375	-363.1003112792969	89.15144348144531	980.820068359375	-472.8097229003906	67.58098602294922	1031.628295898438	-543.4006958007812	28.01678085327148	847.3157348632812	
558	5.57	-633.0227661132812	1100.011962890625	554.1228637695312	-514.8032836914062	1100.91357421875	480.5920104980469	-570.1022338867188	1135.817260742188	511.4668579101562	-442.1190795898438	1338.788696289062	683.5913696289062	-583.4793701171875	1287.23876953125	472.4693908691406	-541.614990234375	1578.169921875	487.4886779785156	-456.8948974609375	1473.7744140625	649.6495971679688	-648.1876220703125	1396.032104492188	491.94189453125	-460.6117248535156	1554.525634765625	427.6015930175781	-358.5036926269531	1540.830444335938	466.3669128417969	-306.7508239746094	1407.237426757812	422.5084533691406	-264.378662109375	1191.851318359375	452.5145263671875	-345.6500854492188	1167.482421875	422.5953063964844	-232.6379699707031	975.3580322265625	623.5874633789062	-243.193115234375	924.9664916992188	550.1204223632812	-243.4482116699219	1083.325927734375	491.718017578125	-226.5191345214844	796.5374145507812	699.1478271484375	-221.9778747558594	862.435302734375	595.9422607421875	-206.54296875	894.0016479492188	656.6416015625	-668.0078735351562	1565.501220703125	630.9619140625	-732.7810668945312	1494.35693359375	649.7090454101562	-769.9930419921875	1202.331787109375	654.093505859375	-689.0887451171875	1195.568969726562	602.531982421875	-705.0491333007812	957.2695922851562	778.9567260742188	-768.4235229492188	943.2412109375	726.9036865234375	-776.70458984375	1130.117431640625	683.64306640625	-687.5143432617188	762.1025390625	789.2916259765625	-702.0112915039062	848.9370727539062	807.6883544921875	-760.5863647460938	843.1593017578125	761.9889526367188	-560.3541870117188	1771.53515625	587.4246215820312	-344.400634765625	1788.291381835938	621.274658203125	-437.2275695800781	1810.560302734375	709.3631591796875	-469.1880798339844	1753.502075195312	490.695556640625	-371.3316345214844	1010.490966796875	489.3355712890625	-641.6090087890625	1017.422058105469	742.0725708007812	-549.7962646484375	1087.703002929688	766.4661865234375	-340.9809875488281	1075.605834960938	602.37353515625	-462.0740966796875	510.9375	537.7755737304688	-422.6006469726562	654.64599609375	503.6178588867188	-616.786376953125	40.21036911010742	417.1864929199219	-532.5413208007812	273.7486877441406	429.8038330078125	-571.6983642578125	34.52885437011719	650.3893432617188	-639.1723022460938	37.7189826965332	589.5826416015625	-545.5337524414062	42.16877746582031	521.4266967773438	-701.14111328125	43.47203826904297	378.0496215820312	-522.7461547851562	561.2013549804688	875.7188110351562	-594.1980590820312	822.7162475585938	813.1160278320312	-519.309814453125	36.94400024414062	943.26708984375	-533.32373046875	428.7550659179688	905.8217163085938	-340.26806640625	122.1873092651367	1061.558471679688	-341.3211975097656	96.10306549072266	995.1040649414062	-448.7224731445312	71.94640350341797	1049.302001953125	-523.10205078125	26.77158164978027	867.9141845703125	
559	5.58	-630.1312255859375	1098.45849609375	562.4169311523438	-512.0626831054688	1099.543823242188	488.1419982910156	-567.211669921875	1134.365600585938	519.6234130859375	-437.5867919921875	1337.100341796875	690.6889038085938	-581.0357666015625	1285.78076171875	481.0069274902344	-539.1126708984375	1576.75830078125	495.8519592285156	-452.7748718261719	1472.08740234375	657.0563354492188	-645.637939453125	1394.499389648438	501.2252197265625	-458.6297302246094	1553.11181640625	435.184326171875	-356.2339477539062	1539.341064453125	472.8353271484375	-305.0616455078125	1405.677734375	428.4091186523438	-262.7765197753906	1190.158447265625	457.94482421875	-344.3610534667969	1165.952270507812	428.7132568359375	-229.8711395263672	973.3674926757812	628.3834228515625	-241.1868743896484	923.08544921875	554.960693359375	-241.602783203125	1081.522583007812	496.7691650390625	-223.3612518310547	794.4564819335938	703.6787719726562	-219.6169128417969	860.4710083007812	600.5039672851562	-203.600341796875	891.9283447265625	661.087646484375	-664.0147705078125	1563.9140625	640.6985473632812	-728.7658081054688	1492.74365234375	659.89013671875	-766.0518188476562	1200.71826171875	664.5799560546875	-685.8894653320312	1193.9052734375	612.0714111328125	-699.9218139648438	955.8445434570312	789.0245361328125	-763.7581787109375	941.71630859375	737.704345703125	-772.5630493164062	1128.518310546875	694.221435546875	-682.28369140625	760.7833862304688	799.829345703125	-696.6017456054688	847.4180908203125	818.2551879882812	-755.5678100585938	841.736328125	772.9560546875	-556.9441528320312	1770.000854492188	595.9143676757812	-340.6232604980469	1786.755126953125	627.7410888671875	-432.7095031738281	1809.098266601562	716.6839599609375	-466.630859375	1751.90087890625	498.3282775878906	-368.3684387207031	1009.187683105469	495.2015991210938	-636.3629760742188	1015.717224121094	751.0692749023438	-544.0473022460938	1085.895874023438	774.458251953125	-336.9893188476562	1074.065673828125	608.0748291015625	-459.310302734375	509.5558471679688	542.8253784179688	-419.7860717773438	653.4204711914062	508.9241333007812	-616.653076171875	40.61463165283203	417.2112121582031	-531.0927124023438	273.49560546875	432.64599609375	-571.5792236328125	34.45313262939453	650.3488159179688	-639.1581420898438	37.71481323242188	589.602294921875	-545.4791259765625	42.16385650634766	521.4260864257812	-701.0044555664062	44.49755096435547	377.9464721679688	-518.2752685546875	559.4796142578125	882.6814575195312	-589.6856079101562	820.4607543945312	820.8975219726562	-497.7350463867188	37.7123908996582	962.3982543945312	-525.2507934570312	428.1466064453125	915.6724853515625	-317.9795837402344	130.8102264404297	1073.98486328125	-320.25927734375	103.3362884521484	1008.103271484375	-425.1533508300781	76.67578887939453	1065.68505859375	-503.1442565917969	26.09893226623535	887.4191284179688	
